<svg version="1.2" xmlns="http://www.w3.org/2000/svg" viewBox="0 0 2069 580" width="2069" height="580">
	<title>1-svg</title>
	<defs>
		<clipPath clipPathUnits="userSpaceOnUse" id="cp1">
			<path d="m951.09 388h100.91v171h-100.91z"/>
		</clipPath>
		<clipPath clipPathUnits="userSpaceOnUse" id="cp2">
			<path d="m974.22 448.93q-1.12-2.8-2.55-5.45-1.35-2.68-2.4-5.49c-0.78-1.88-1.26-3.95-2.07-5.78-0.83-1.83-1.64-3.61-2.36-5.44-1.5-3.66-2.79-7.37-3.95-10.98-2.69-6.94-5.1-13.06-6.73-17.73-1.64-4.67-2.51-7.61-2.51-7.61q3.82-0.83 7.7-1.2 10.44-1.22 20.88 0 6.9 1.27 13.62 3.27c2.65 0.77 5.05 1.35 7.46 2.55 2.4 1.21 4.81 2.46 7.22 3.91q3.7 2.31 7.36 4.81 3.82 2.43 7.02 5.64 6.95 6.55 12.32 14.45 4.24 6.34 7.39 13.3 3.16 6.95 5.15 14.32 2 7.37 2.78 14.96 0.78 7.6 0.32 15.22-0.7 10.36-5.25 19.7-1.35 2.93-3.37 5.44-2.61 2.99-3.95 6.73-1.33 3.75-1.19 7.72 1.28 17.46-0.82 34.83-0.14 0.54-0.49 0.97-0.33 0.44-0.82 0.71-0.48 0.27-1.03 0.34-0.55 0.06-1.08-0.09c-1.68-0.39-2.69-1.59-2.69-2.85q3.3-20.98 1.54-42.14-1.34-15.2-5.46-29.89-4.13-14.68-10.9-28.35-6.96-13.57-16.56-25.4-9.61-11.83-21.45-21.42 11.43 9.87 20.56 21.89 9.14 12.03 15.57 25.7 6.28 13.58 9.92 28.08 3.64 14.51 4.52 29.44c-7.7-1.5-15.59-9.3-23.68-19.27-8.08-9.97-15.73-21.96-24.05-34.39q-3.48-4.97-5.97-10.5z"/>
		</clipPath>
		<linearGradient id="g1" x1="969.8" y1="563.1" x2="1019.3" y2="379.8" gradientUnits="userSpaceOnUse">
			<stop offset="0" stop-color="#87cb28"/>
			<stop offset="0" stop-color="#86ca28"/>
			<stop offset="0" stop-color="#86ca28"/>
			<stop offset="0" stop-color="#85c928"/>
			<stop offset=".1" stop-color="#85c928"/>
			<stop offset=".1" stop-color="#84c828"/>
			<stop offset=".1" stop-color="#84c828"/>
			<stop offset=".1" stop-color="#83c729"/>
			<stop offset=".1" stop-color="#83c729"/>
			<stop offset=".1" stop-color="#82c629"/>
			<stop offset=".1" stop-color="#82c629"/>
			<stop offset=".2" stop-color="#81c529"/>
			<stop offset=".2" stop-color="#81c529"/>
			<stop offset=".2" stop-color="#80c429"/>
			<stop offset=".2" stop-color="#80c429"/>
			<stop offset=".2" stop-color="#7fc329"/>
			<stop offset=".2" stop-color="#7ec329"/>
			<stop offset=".3" stop-color="#7ec229"/>
			<stop offset=".3" stop-color="#7dc129"/>
			<stop offset=".3" stop-color="#7dc129"/>
			<stop offset=".3" stop-color="#7cc029"/>
			<stop offset=".3" stop-color="#7cc029"/>
			<stop offset=".3" stop-color="#7bbf29"/>
			<stop offset=".3" stop-color="#7bbe2a"/>
			<stop offset=".4" stop-color="#7abe2a"/>
			<stop offset=".4" stop-color="#7abd2a"/>
			<stop offset=".4" stop-color="#79bd2a"/>
			<stop offset=".4" stop-color="#78bc2a"/>
			<stop offset=".4" stop-color="#78bc2a"/>
			<stop offset=".4" stop-color="#77bb2a"/>
			<stop offset=".5" stop-color="#77bb2a"/>
			<stop offset=".5" stop-color="#76ba2a"/>
			<stop offset=".5" stop-color="#76b92a"/>
			<stop offset=".5" stop-color="#75b92a"/>
			<stop offset=".5" stop-color="#75b82a"/>
			<stop offset=".5" stop-color="#74b82a"/>
			<stop offset=".5" stop-color="#73b72a"/>
			<stop offset=".6" stop-color="#73b72a"/>
			<stop offset=".6" stop-color="#72b62a"/>
			<stop offset=".6" stop-color="#72b62b"/>
			<stop offset=".6" stop-color="#71b52b"/>
			<stop offset=".6" stop-color="#70b42b"/>
			<stop offset=".6" stop-color="#70b42b"/>
			<stop offset=".7" stop-color="#6fb32b"/>
			<stop offset=".7" stop-color="#6fb32b"/>
			<stop offset=".7" stop-color="#6eb22b"/>
			<stop offset=".7" stop-color="#6eb12b"/>
			<stop offset=".7" stop-color="#6db12b"/>
			<stop offset=".7" stop-color="#6db02b"/>
			<stop offset=".8" stop-color="#6cb02b"/>
			<stop offset=".8" stop-color="#6baf2b"/>
			<stop offset=".8" stop-color="#6baf2b"/>
			<stop offset=".8" stop-color="#6aae2b"/>
			<stop offset=".8" stop-color="#6aad2b"/>
			<stop offset=".8" stop-color="#69ad2b"/>
			<stop offset=".8" stop-color="#69ac2c"/>
			<stop offset=".9" stop-color="#68ac2c"/>
			<stop offset=".9" stop-color="#68ab2c"/>
			<stop offset=".9" stop-color="#67ab2c"/>
			<stop offset=".9" stop-color="#67ab2c"/>
			<stop offset=".9" stop-color="#67aa2c"/>
			<stop offset=".9" stop-color="#66aa2c"/>
			<stop offset=".9" stop-color="#65a92c"/>
			<stop offset="1" stop-color="#65a82c"/>
			<stop offset="1" stop-color="#64a82c"/>
			<stop offset="1" stop-color="#64a72c"/>
			<stop offset="1" stop-color="#63a72c"/>
		</linearGradient>
		<clipPath clipPathUnits="userSpaceOnUse" id="cp3">
			<path d="m1174 16h100v171h-100z"/>
		</clipPath>
		<clipPath clipPathUnits="userSpaceOnUse" id="cp4">
			<path d="m1251.03 125.82q1.14 2.79 2.6 5.44 1.31 2.67 2.4 5.49c0.72 1.88 1.26 4 2.07 5.78q1.23 2.68 2.31 5.44c1.49 3.66 2.79 7.37 4 10.98 2.83 7.04 5.24 13.2 6.88 17.83 1.63 4.62 2.45 7.61 2.45 7.61q-3.81 0.83-7.7 1.2-10.41 1.21-20.83 0-6.94-1.19-13.67-3.27c-2.65-0.73-5.05-1.4-7.46-2.56-2.4-1.15-4.76-2.46-7.21-3.85q-3.71-2.27-7.37-4.82-3.82-2.45-7.02-5.68-6.93-6.56-12.27-14.45-4.24-6.35-7.4-13.3-3.16-6.95-5.15-14.32-2-7.37-2.77-14.96-0.78-7.6-0.32-15.22 0.54-10.56 5.1-20.09 1.27-2.75 3.13-5.15 2.77-3.41 4.14-7.58 1.36-4.17 1.15-8.56-1.1-16.73 0.96-33.38 0.14-0.53 0.47-0.97 0.33-0.43 0.81-0.71 0.48-0.27 1.02-0.34 0.55-0.06 1.07 0.09c1.69 0.34 2.75 1.59 2.75 2.8v0.24q-3.31 20.98-1.54 42.15 1.34 15.28 5.48 30.05 4.15 14.78 10.97 28.52 6.93 13.59 16.54 25.44 9.61 11.84 21.47 21.42-11.43-9.87-20.57-21.89-9.15-12.03-15.61-25.7-6.28-13.57-9.92-28.07-3.64-14.51-4.51-29.44c7.65 1.49 15.54 9.3 23.62 19.27 8.08 9.97 15.69 21.96 24.06 34.34q3.36 4.86 5.87 10.22z"/>
		</clipPath>
		<linearGradient id="g2" x1="1223.6" y1="16.1" x2="1224.3" y2="186.6" gradientUnits="userSpaceOnUse">
			<stop offset="0" stop-color="#87cb28"/>
			<stop offset="0" stop-color="#87cb28"/>
			<stop offset="0" stop-color="#86ca28"/>
			<stop offset="0" stop-color="#86ca28"/>
			<stop offset="0" stop-color="#86c928"/>
			<stop offset=".1" stop-color="#85c928"/>
			<stop offset=".1" stop-color="#85c828"/>
			<stop offset=".1" stop-color="#84c828"/>
			<stop offset=".1" stop-color="#84c829"/>
			<stop offset=".1" stop-color="#83c729"/>
			<stop offset=".1" stop-color="#83c729"/>
			<stop offset=".1" stop-color="#82c629"/>
			<stop offset=".1" stop-color="#82c629"/>
			<stop offset=".1" stop-color="#81c529"/>
			<stop offset=".1" stop-color="#81c529"/>
			<stop offset=".1" stop-color="#80c429"/>
			<stop offset=".1" stop-color="#80c429"/>
			<stop offset=".1" stop-color="#7fc329"/>
			<stop offset=".2" stop-color="#7ec329"/>
			<stop offset=".2" stop-color="#7ec229"/>
			<stop offset=".2" stop-color="#7dc229"/>
			<stop offset=".2" stop-color="#7dc129"/>
			<stop offset=".2" stop-color="#7cc129"/>
			<stop offset=".2" stop-color="#7cc029"/>
			<stop offset=".2" stop-color="#7bc029"/>
			<stop offset=".2" stop-color="#7bbf29"/>
			<stop offset=".2" stop-color="#7abe2a"/>
			<stop offset=".2" stop-color="#7abe2a"/>
			<stop offset=".2" stop-color="#79bd2a"/>
			<stop offset=".2" stop-color="#79bd2a"/>
			<stop offset=".3" stop-color="#78bc2a"/>
			<stop offset=".3" stop-color="#78bc2a"/>
			<stop offset=".3" stop-color="#77bb2a"/>
			<stop offset=".3" stop-color="#77bb2a"/>
			<stop offset=".3" stop-color="#76ba2a"/>
			<stop offset=".3" stop-color="#76ba2a"/>
			<stop offset=".3" stop-color="#76b92a"/>
			<stop offset=".3" stop-color="#75b92a"/>
			<stop offset=".3" stop-color="#75b82a"/>
			<stop offset=".3" stop-color="#74b82a"/>
			<stop offset=".3" stop-color="#74b72a"/>
			<stop offset=".3" stop-color="#73b72a"/>
			<stop offset=".3" stop-color="#72b62a"/>
			<stop offset=".4" stop-color="#72b62a"/>
			<stop offset=".4" stop-color="#71b52b"/>
			<stop offset=".4" stop-color="#71b52b"/>
			<stop offset=".4" stop-color="#70b42b"/>
			<stop offset=".4" stop-color="#70b42b"/>
			<stop offset=".4" stop-color="#6fb32b"/>
			<stop offset=".4" stop-color="#6fb32b"/>
			<stop offset=".4" stop-color="#6eb22b"/>
			<stop offset=".4" stop-color="#6eb22b"/>
			<stop offset=".4" stop-color="#6db12b"/>
			<stop offset=".4" stop-color="#6db12b"/>
			<stop offset=".4" stop-color="#6cb02b"/>
			<stop offset=".4" stop-color="#6cb02b"/>
			<stop offset=".5" stop-color="#6baf2b"/>
			<stop offset=".5" stop-color="#6baf2b"/>
			<stop offset=".5" stop-color="#6aae2b"/>
			<stop offset=".5" stop-color="#6aae2b"/>
			<stop offset=".5" stop-color="#69ad2b"/>
			<stop offset=".5" stop-color="#69ad2c"/>
			<stop offset=".5" stop-color="#68ac2c"/>
			<stop offset=".5" stop-color="#68ac2c"/>
			<stop offset=".5" stop-color="#67ab2c"/>
			<stop offset=".5" stop-color="#67ab2c"/>
			<stop offset=".5" stop-color="#66aa2c"/>
			<stop offset=".5" stop-color="#66aa2c"/>
			<stop offset=".5" stop-color="#65a92c"/>
			<stop offset=".6" stop-color="#65a92c"/>
			<stop offset=".6" stop-color="#64a82c"/>
			<stop offset=".6" stop-color="#64a82c"/>
			<stop offset=".6" stop-color="#63a72c"/>
			<stop offset=".6" stop-color="#63a72c"/>
			<stop offset=".6" stop-color="#62a62c"/>
			<stop offset=".6" stop-color="#62a52c"/>
			<stop offset=".6" stop-color="#61a52c"/>
			<stop offset=".6" stop-color="#61a42c"/>
			<stop offset=".6" stop-color="#60a42c"/>
			<stop offset=".6" stop-color="#60a32d"/>
			<stop offset=".6" stop-color="#5fa32d"/>
			<stop offset=".6" stop-color="#5fa22d"/>
			<stop offset=".7" stop-color="#5ea22d"/>
			<stop offset=".7" stop-color="#5ea12d"/>
			<stop offset=".7" stop-color="#5da12d"/>
			<stop offset=".7" stop-color="#5da02d"/>
			<stop offset=".7" stop-color="#5ca02d"/>
			<stop offset=".7" stop-color="#5c9f2d"/>
			<stop offset=".7" stop-color="#5b9f2d"/>
			<stop offset=".7" stop-color="#5b9e2d"/>
			<stop offset=".7" stop-color="#5a9e2d"/>
			<stop offset=".7" stop-color="#5a9d2d"/>
			<stop offset=".7" stop-color="#599d2d"/>
			<stop offset=".7" stop-color="#599c2d"/>
			<stop offset=".8" stop-color="#589c2d"/>
			<stop offset=".8" stop-color="#589b2d"/>
			<stop offset=".8" stop-color="#579b2e"/>
			<stop offset=".8" stop-color="#579a2e"/>
			<stop offset=".8" stop-color="#569a2e"/>
			<stop offset=".8" stop-color="#56992e"/>
			<stop offset=".8" stop-color="#55992e"/>
			<stop offset=".8" stop-color="#55982e"/>
			<stop offset=".8" stop-color="#54982e"/>
			<stop offset=".8" stop-color="#54972e"/>
			<stop offset=".8" stop-color="#53972e"/>
			<stop offset=".8" stop-color="#53962e"/>
			<stop offset=".8" stop-color="#52962e"/>
			<stop offset=".9" stop-color="#52952e"/>
			<stop offset=".9" stop-color="#51952e"/>
			<stop offset=".9" stop-color="#51942e"/>
			<stop offset=".9" stop-color="#50942e"/>
			<stop offset=".9" stop-color="#50932e"/>
			<stop offset=".9" stop-color="#4f932e"/>
			<stop offset=".9" stop-color="#4f922e"/>
			<stop offset=".9" stop-color="#4e922f"/>
			<stop offset=".9" stop-color="#4e912f"/>
			<stop offset=".9" stop-color="#4d912f"/>
			<stop offset=".9" stop-color="#4d902f"/>
			<stop offset=".9" stop-color="#4c902f"/>
			<stop offset=".9" stop-color="#4c8f2f"/>
			<stop offset="1" stop-color="#4b8f2f"/>
			<stop offset="1" stop-color="#4b8e2f"/>
			<stop offset="1" stop-color="#4a8e2f"/>
			<stop offset="1" stop-color="#4a8d2f"/>
			<stop offset="1" stop-color="#498d2f"/>
			<stop offset="1" stop-color="#498c2f"/>
			<stop offset="1" stop-color="#488b2f"/>
			<stop offset="1" stop-color="#488b2f"/>
		</linearGradient>
		<clipPath clipPathUnits="userSpaceOnUse" id="cp5">
			<path d="m1071 0h172v493h-172z"/>
		</clipPath>
		<clipPath clipPathUnits="userSpaceOnUse" id="cp6">
			<path d="m1242.13 348.98q0.01 5.2-0.49 10.39-0.5 5.18-1.52 10.29-1 5.11-2.51 10.09-1.51 4.98-3.5 9.79-2 4.81-4.45 9.4-2.46 4.59-5.36 8.91-2.9 4.33-6.21 8.34-3.31 4.02-7 7.69l-68.42 68.49q3.55-3.65 6.72-7.62 3.18-3.98 5.96-8.25 2.78-4.26 5.13-8.78 2.35-4.51 4.26-9.23 1.91-4.72 3.35-9.6 1.45-4.89 2.41-9.89 0.97-5 1.44-10.07 0.48-5.06 0.47-10.16c0-2.79 0-5.59-0.29-8.28l12.8-12.81q1.19-1.2 2.32-2.46 1.13-1.25 2.2-2.56 1.07-1.31 2.08-2.66 1-1.36 1.94-2.77 0.93-1.4 1.8-2.86 0.87-1.45 1.66-2.94 0.79-1.49 1.51-3.02 0.72-1.53 1.37-3.09 0.64-1.56 1.21-3.15 0.57-1.59 1.06-3.21 0.49-1.62 0.89-3.26 0.41-1.63 0.74-3.29 0.33-1.66 0.58-3.33 0.25-1.67 0.41-3.35 0.17-1.69 0.25-3.37 0.08-1.69 0.08-3.38 0-1.69-0.08-3.38-0.08-1.69-0.25-3.37-0.16-1.68-0.41-3.36-0.25-1.66-0.58-3.32-0.33-1.66-0.74-3.3-0.4-1.64-0.89-3.26-0.49-1.62-1.06-3.2-0.57-1.6-1.21-3.16-0.65-1.56-1.37-3.09-0.72-1.53-1.51-3.02-0.79-1.49-1.66-2.94-0.87-1.45-1.8-2.86-0.94-1.4-1.94-2.76-1.01-1.36-2.08-2.67-1.07-1.31-2.2-2.56-1.13-1.25-2.32-2.45l-82.96-83.09q-1.75-1.77-3.43-3.62-1.67-1.84-3.26-3.77-1.59-1.92-3.08-3.92-1.5-2-2.9-4.06-1.39-2.07-2.69-4.2-1.3-2.13-2.5-4.32-1.2-2.18-2.3-4.43-1.09-2.24-2.08-4.53-0.98-2.3-1.86-4.63-0.88-2.34-1.65-4.71-0.77-2.37-1.42-4.78-0.66-2.41-1.2-4.85-0.54-2.43-0.97-4.89-0.42-2.46-0.73-4.94-0.31-2.47-0.51-4.96-0.19-2.49-0.27-4.98-0.07-2.5-0.03-4.99 0.04-2.5 0.2-4.99 0.16-2.49 0.43-4.97 0.28-2.48 0.67-4.94 0.39-2.47 0.9-4.91 0.51-2.45 1.13-4.86 0.62-2.42 1.35-4.8 0.74-2.39 1.58-4.74 0.85-2.34 1.8-4.65 0.96-2.3 2.02-4.56 1.06-2.26 2.23-4.46 1.17-2.21 2.44-4.36 1.27-2.14 2.64-4.23 1.37-2.08 2.83-4.1 1.47-2.02 3.03-3.97 1.56-1.95 3.21-3.82c1.39-1.54 2.79-3.03 4.28-4.53l61.88-62.18q0.64-0.64 1.35-1.22 0.7-0.58 1.46-1.09 0.76-0.5 1.56-0.94 0.8-0.42 1.64-0.77 0.85-0.35 1.72-0.62 0.87-0.26 1.76-0.44 0.9-0.18 1.8-0.27 0.91-0.09 1.82-0.09 0.91 0 1.82 0.09 0.9 0.09 1.8 0.27 0.89 0.18 1.76 0.44 0.87 0.27 1.72 0.62 0.84 0.35 1.64 0.77 0.8 0.44 1.56 0.94 0.76 0.51 1.46 1.09 0.71 0.58 1.35 1.22 0.65 0.64 1.22 1.35 0.58 0.7 1.09 1.46 0.51 0.76 0.93 1.56 0.43 0.81 0.78 1.65 0.35 0.85 0.61 1.72 0.27 0.87 0.45 1.76 0.17 0.9 0.26 1.8 0.09 0.91 0.09 1.82 0 0.92-0.09 1.82-0.09 0.91-0.26 1.81-0.18 0.89-0.45 1.76-0.26 0.88-0.61 1.72-0.35 0.84-0.78 1.64-0.42 0.81-0.93 1.57-0.51 0.76-1.09 1.46-0.57 0.7-1.22 1.35l-61.73 61.8q-1.21 1.11-2.26 2.36c-1.16 1.25-2.17 2.51-3.18 3.81q-1.91 2.45-3.59 5.08-1.69 2.62-3.13 5.38-1.44 2.76-2.62 5.65-1.19 2.88-2.11 5.86-0.92 2.97-1.57 6.02-0.64 3.05-1.02 6.14-0.37 3.1-0.46 6.22-0.09 3.11 0.1 6.22 0.19 3.11 0.66 6.19 0.47 3.09 1.22 6.11 0.74 3.03 1.76 5.97 1.02 2.95 2.3 5.79 1.27 2.84 2.8 5.56 1.53 2.71 3.3 5.28 1.76 2.57 3.75 4.96 2 2.4 4.19 4.6l82.76 83.28q3.7 3.67 7.02 7.68 3.31 4.01 6.21 8.34 2.91 4.32 5.37 8.91 2.46 4.59 4.45 9.4 2 4.81 3.5 9.8 1.51 4.98 2.52 10.09 1 5.11 1.5 10.3 0.49 5.18 0.47 10.39z"/>
		</clipPath>
		<linearGradient id="g3" x1="1266" y1="11.3" x2="1046.7" y2="481" gradientUnits="userSpaceOnUse">
			<stop offset="0" stop-color="#87cb28"/>
			<stop offset=".1" stop-color="#87cb28"/>
			<stop offset=".3" stop-color="#87cb28"/>
			<stop offset=".3" stop-color="#87cb28"/>
			<stop offset=".3" stop-color="#87cb28"/>
			<stop offset=".3" stop-color="#86ca28"/>
			<stop offset=".3" stop-color="#85c928"/>
			<stop offset=".3" stop-color="#85c928"/>
			<stop offset=".3" stop-color="#84c828"/>
			<stop offset=".3" stop-color="#83c729"/>
			<stop offset=".3" stop-color="#82c629"/>
			<stop offset=".3" stop-color="#82c529"/>
			<stop offset=".3" stop-color="#81c529"/>
			<stop offset=".3" stop-color="#80c429"/>
			<stop offset=".3" stop-color="#7fc329"/>
			<stop offset=".3" stop-color="#7ec229"/>
			<stop offset=".3" stop-color="#7ec229"/>
			<stop offset=".3" stop-color="#7dc129"/>
			<stop offset=".4" stop-color="#7cc029"/>
			<stop offset=".4" stop-color="#7bbf29"/>
			<stop offset=".4" stop-color="#7bbe2a"/>
			<stop offset=".4" stop-color="#7abe2a"/>
			<stop offset=".4" stop-color="#79bd2a"/>
			<stop offset=".4" stop-color="#78bc2a"/>
			<stop offset=".4" stop-color="#78bb2a"/>
			<stop offset=".4" stop-color="#77bb2a"/>
			<stop offset=".4" stop-color="#76ba2a"/>
			<stop offset=".4" stop-color="#75b92a"/>
			<stop offset=".4" stop-color="#75b82a"/>
			<stop offset=".4" stop-color="#74b82a"/>
			<stop offset=".4" stop-color="#73b72a"/>
			<stop offset=".4" stop-color="#72b62a"/>
			<stop offset=".4" stop-color="#71b52b"/>
			<stop offset=".4" stop-color="#71b52b"/>
			<stop offset=".4" stop-color="#70b42b"/>
			<stop offset=".4" stop-color="#6fb32b"/>
			<stop offset=".4" stop-color="#6eb22b"/>
			<stop offset=".4" stop-color="#6eb12b"/>
			<stop offset=".4" stop-color="#6db12b"/>
			<stop offset=".4" stop-color="#6cb02b"/>
			<stop offset=".4" stop-color="#6baf2b"/>
			<stop offset=".4" stop-color="#6bae2b"/>
			<stop offset=".4" stop-color="#6aae2b"/>
			<stop offset=".4" stop-color="#69ad2b"/>
			<stop offset=".5" stop-color="#68ac2c"/>
			<stop offset=".5" stop-color="#68ab2c"/>
			<stop offset=".5" stop-color="#67ab2c"/>
			<stop offset=".5" stop-color="#66aa2c"/>
			<stop offset=".5" stop-color="#65a92c"/>
			<stop offset=".5" stop-color="#64a82c"/>
			<stop offset=".5" stop-color="#64a82c"/>
			<stop offset=".5" stop-color="#63a72c"/>
			<stop offset=".5" stop-color="#62a62c"/>
			<stop offset=".5" stop-color="#61a52c"/>
			<stop offset=".5" stop-color="#61a42c"/>
			<stop offset=".5" stop-color="#60a32d"/>
			<stop offset=".5" stop-color="#5fa32d"/>
			<stop offset=".5" stop-color="#5ea22d"/>
			<stop offset=".5" stop-color="#5ea12d"/>
			<stop offset=".5" stop-color="#5da02d"/>
			<stop offset=".5" stop-color="#5ca02d"/>
			<stop offset=".5" stop-color="#5b9f2d"/>
			<stop offset=".5" stop-color="#5b9e2d"/>
			<stop offset=".5" stop-color="#5a9d2d"/>
			<stop offset=".5" stop-color="#599d2d"/>
			<stop offset=".5" stop-color="#589c2d"/>
			<stop offset=".5" stop-color="#579b2d"/>
			<stop offset=".5" stop-color="#579a2e"/>
			<stop offset=".5" stop-color="#569a2e"/>
			<stop offset=".6" stop-color="#55992e"/>
			<stop offset=".6" stop-color="#54982e"/>
			<stop offset=".6" stop-color="#54972e"/>
			<stop offset=".6" stop-color="#53962e"/>
			<stop offset=".6" stop-color="#52962e"/>
			<stop offset=".6" stop-color="#52952e"/>
			<stop offset=".6" stop-color="#51942e"/>
			<stop offset=".6" stop-color="#50932e"/>
			<stop offset=".6" stop-color="#4f932e"/>
			<stop offset=".6" stop-color="#4f922f"/>
			<stop offset=".6" stop-color="#4e912f"/>
			<stop offset=".6" stop-color="#4d902f"/>
			<stop offset=".6" stop-color="#4c902f"/>
			<stop offset=".6" stop-color="#4b8f2f"/>
			<stop offset=".6" stop-color="#4b8e2f"/>
			<stop offset=".6" stop-color="#4a8d2f"/>
			<stop offset=".6" stop-color="#498d2f"/>
			<stop offset=".6" stop-color="#488c2f"/>
			<stop offset=".6" stop-color="#488b2f"/>
			<stop offset=".6" stop-color="#478a2f"/>
			<stop offset=".6" stop-color="#46892f"/>
			<stop offset=".6" stop-color="#458930"/>
			<stop offset=".6" stop-color="#458830"/>
			<stop offset=".6" stop-color="#448730"/>
			<stop offset=".6" stop-color="#438630"/>
			<stop offset=".6" stop-color="#428630"/>
			<stop offset=".7" stop-color="#428530"/>
			<stop offset=".7" stop-color="#418430"/>
			<stop offset=".7" stop-color="#408330"/>
			<stop offset=".7" stop-color="#3f8230"/>
			<stop offset=".7" stop-color="#3e8230"/>
			<stop offset=".7" stop-color="#3e8130"/>
			<stop offset=".7" stop-color="#3d8030"/>
			<stop offset=".7" stop-color="#3c7f31"/>
			<stop offset=".7" stop-color="#3b7e31"/>
			<stop offset=".7" stop-color="#3b7e31"/>
			<stop offset=".7" stop-color="#3a7d31"/>
			<stop offset=".7" stop-color="#397c31"/>
			<stop offset=".7" stop-color="#387b31"/>
			<stop offset=".7" stop-color="#387b31"/>
			<stop offset=".7" stop-color="#377a31"/>
			<stop offset=".7" stop-color="#367931"/>
			<stop offset=".7" stop-color="#357831"/>
			<stop offset=".7" stop-color="#357831"/>
			<stop offset=".7" stop-color="#347732"/>
			<stop offset=".7" stop-color="#337632"/>
			<stop offset=".7" stop-color="#327532"/>
			<stop offset=".7" stop-color="#317532"/>
			<stop offset=".7" stop-color="#317432"/>
			<stop offset=".7" stop-color="#307332"/>
			<stop offset=".7" stop-color="#2f7232"/>
			<stop offset=".8" stop-color="#2e7132"/>
			<stop offset=".8" stop-color="#2e7132"/>
			<stop offset=".8" stop-color="#2d7032"/>
			<stop offset=".8" stop-color="#2c6f32"/>
			<stop offset=".8" stop-color="#2b6e32"/>
			<stop offset=".8" stop-color="#2b6e33"/>
			<stop offset=".8" stop-color="#2a6d33"/>
			<stop offset=".8" stop-color="#296c33"/>
			<stop offset=".8" stop-color="#286b33"/>
			<stop offset=".8" stop-color="#286b33"/>
			<stop offset=".8" stop-color="#276a33"/>
			<stop offset=".8" stop-color="#266933"/>
			<stop offset=".8" stop-color="#256833"/>
			<stop offset=".8" stop-color="#246834"/>
			<stop offset=".8" stop-color="#246734"/>
			<stop offset=".8" stop-color="#236634"/>
			<stop offset=".8" stop-color="#226534"/>
			<stop offset=".8" stop-color="#216434"/>
			<stop offset=".8" stop-color="#216334"/>
			<stop offset=".8" stop-color="#206334"/>
			<stop offset=".8" stop-color="#1f6234"/>
			<stop offset=".8" stop-color="#1f6234"/>
			<stop offset=".9" stop-color="#1f6234"/>
			<stop offset=".9" stop-color="#1f6234"/>
			<stop offset="1" stop-color="#1f6234"/>
		</linearGradient>
		<clipPath clipPathUnits="userSpaceOnUse" id="cp7">
			<path d="m1001 72h172v507.75h-172z"/>
		</clipPath>
		<clipPath clipPathUnits="userSpaceOnUse" id="cp8">
			<path d="m1172.41 418.77q0.01 5.1-0.47 10.16-0.47 5.07-1.44 10.07-0.97 5-2.41 9.89-1.44 4.88-3.35 9.6-1.91 4.72-4.26 9.23-2.35 4.52-5.13 8.78-2.78 4.27-5.96 8.25-3.17 3.97-6.72 7.63-0.56 0.68-1.2 1.29l-80.54 80.64q-0.65 0.64-1.36 1.22-0.7 0.58-1.46 1.09-0.76 0.5-1.56 0.94-0.81 0.43-1.65 0.78-0.85 0.35-1.72 0.61-0.87 0.27-1.77 0.45-0.89 0.18-1.8 0.26-0.91 0.09-1.82 0.09-0.91 0-1.82-0.09-0.91-0.08-1.81-0.26-0.89-0.18-1.77-0.45-0.87-0.26-1.71-0.61-0.85-0.35-1.65-0.78-0.8-0.44-1.56-0.94-0.76-0.51-1.47-1.09-0.7-0.58-1.35-1.22-0.64-0.65-1.22-1.36-0.58-0.7-1.09-1.46-0.51-0.76-0.93-1.57-0.44-0.8-0.79-1.65-0.34-0.84-0.61-1.72-0.26-0.87-0.44-1.76-0.18-0.9-0.27-1.81-0.09-0.91-0.09-1.82 0-0.92 0.09-1.82 0.09-0.92 0.27-1.81 0.18-0.9 0.44-1.77 0.27-0.88 0.61-1.72 0.35-0.84 0.79-1.65 0.42-0.8 0.93-1.57 0.51-0.75 1.09-1.46 0.58-0.71 1.22-1.35l69.72-69.7 10.88-11.08q1.19-1.19 2.32-2.44 1.14-1.26 2.21-2.56 1.07-1.31 2.08-2.66 1.01-1.36 1.94-2.76 0.94-1.41 1.81-2.85 0.87-1.45 1.67-2.94 0.79-1.49 1.52-3.02 0.72-1.53 1.36-3.09 0.65-1.55 1.22-3.15 0.57-1.59 1.06-3.21 0.49-1.61 0.9-3.25 0.41-1.64 0.74-3.3 0.33-1.65 0.58-3.32 0.25-1.67 0.41-3.36 0.17-1.68 0.25-3.36 0.08-1.69 0.08-3.38 0-1.69-0.08-3.38-0.08-1.68-0.25-3.36-0.16-1.68-0.41-3.36-0.25-1.67-0.58-3.33-0.33-1.65-0.74-3.29-0.41-1.64-0.9-3.26-0.49-1.61-1.06-3.2-0.57-1.6-1.22-3.15-0.64-1.56-1.36-3.09-0.73-1.53-1.52-3.02-0.8-1.49-1.67-2.94-0.87-1.44-1.81-2.85-0.93-1.4-1.94-2.76-1.01-1.35-2.08-2.66-1.07-1.31-2.21-2.55-1.13-1.26-2.32-2.45l-83-82.95q-1.84-1.83-3.59-3.76-1.74-1.93-3.39-3.94-1.65-2.01-3.19-4.1-1.55-2.09-2.99-4.25-1.45-2.17-2.79-4.39-1.33-2.24-2.55-4.53-1.23-2.3-2.34-4.65-1.11-2.35-2.11-4.75-0.99-2.41-1.86-4.85-0.88-2.45-1.64-4.94-0.75-2.49-1.38-5.02-0.63-2.51-1.14-5.07-0.5-2.55-0.89-5.12-0.38-2.58-0.63-5.16-0.26-2.59-0.38-5.19-0.13-2.6-0.13-5.2 0-2.6 0.13-5.2 0.12-2.6 0.38-5.18 0.25-2.6 0.63-5.17 0.39-2.57 0.89-5.12 0.51-2.55 1.14-5.08 0.63-2.52 1.38-5.01 0.76-2.49 1.64-4.94 0.87-2.45 1.86-4.85 1-2.4 2.11-4.75 1.11-2.36 2.34-4.65 1.22-2.29 2.55-4.52 1.34-2.24 2.79-4.4 1.44-2.16 2.99-4.25 1.54-2.09 3.19-4.1 1.65-2.01 3.39-3.94 1.75-1.93 3.59-3.77l65.29-64.88q-3.53 3.98-6.64 8.3-3.11 4.32-5.77 8.93-2.65 4.61-4.84 9.47-2.18 4.86-3.86 9.91-1.68 5.05-2.85 10.24-1.16 5.19-1.8 10.48-0.64 5.28-0.74 10.6-0.11 5.33 0.32 10.63l-12.89 12.58q-1.19 1.19-2.33 2.44-1.13 1.25-2.2 2.56-1.07 1.31-2.08 2.66-1 1.36-1.94 2.77-0.94 1.4-1.81 2.85-0.86 1.45-1.66 2.94-0.8 1.49-1.52 3.02-0.72 1.53-1.37 3.09-0.64 1.56-1.21 3.15-0.57 1.59-1.06 3.21-0.49 1.62-0.9 3.25-0.41 1.64-0.74 3.3-0.33 1.66-0.58 3.33-0.24 1.67-0.41 3.35-0.16 1.69-0.25 3.37-0.08 1.69-0.08 3.38 0 1.69 0.08 3.38 0.09 1.69 0.25 3.37 0.17 1.68 0.41 3.35 0.25 1.67 0.58 3.33 0.33 1.66 0.74 3.3 0.41 1.64 0.9 3.25 0.49 1.62 1.06 3.21 0.57 1.59 1.21 3.15 0.65 1.56 1.37 3.09 0.72 1.53 1.52 3.02 0.8 1.49 1.66 2.94 0.87 1.45 1.81 2.85 0.94 1.41 1.94 2.77 1.01 1.35 2.08 2.66 1.07 1.31 2.2 2.56 1.14 1.25 2.33 2.44l83 83.04q6.65 6.64 12.02 14.36 5.37 7.7 9.29 16.25 3.93 8.53 6.28 17.64 2.35 9.09 3.06 18.47c0.19 2.69 0.29 5.49 0.29 8.28z"/>
		</clipPath>
		<linearGradient id="g4" x1="1014.4" y1="583.3" x2="1154" y2="67.3" gradientUnits="userSpaceOnUse">
			<stop offset="0" stop-color="#87cb28"/>
			<stop offset="0" stop-color="#87cb28"/>
			<stop offset="0" stop-color="#86ca28"/>
			<stop offset="0" stop-color="#85c928"/>
			<stop offset="0" stop-color="#85c928"/>
			<stop offset="0" stop-color="#84c828"/>
			<stop offset=".1" stop-color="#83c729"/>
			<stop offset=".1" stop-color="#82c629"/>
			<stop offset=".1" stop-color="#82c629"/>
			<stop offset=".1" stop-color="#81c529"/>
			<stop offset=".1" stop-color="#80c429"/>
			<stop offset=".1" stop-color="#80c429"/>
			<stop offset=".1" stop-color="#7fc329"/>
			<stop offset=".1" stop-color="#7ec229"/>
			<stop offset=".1" stop-color="#7dc229"/>
			<stop offset=".1" stop-color="#7dc129"/>
			<stop offset=".1" stop-color="#7cc029"/>
			<stop offset=".1" stop-color="#7bbf29"/>
			<stop offset=".1" stop-color="#7abe2a"/>
			<stop offset=".1" stop-color="#7abd2a"/>
			<stop offset=".2" stop-color="#79bd2a"/>
			<stop offset=".2" stop-color="#78bc2a"/>
			<stop offset=".2" stop-color="#77bb2a"/>
			<stop offset=".2" stop-color="#76ba2a"/>
			<stop offset=".2" stop-color="#76b92a"/>
			<stop offset=".2" stop-color="#75b92a"/>
			<stop offset=".2" stop-color="#74b82a"/>
			<stop offset=".2" stop-color="#73b72a"/>
			<stop offset=".2" stop-color="#72b62a"/>
			<stop offset=".2" stop-color="#72b62b"/>
			<stop offset=".2" stop-color="#71b52b"/>
			<stop offset=".2" stop-color="#70b42b"/>
			<stop offset=".3" stop-color="#6fb32b"/>
			<stop offset=".3" stop-color="#6eb22b"/>
			<stop offset=".3" stop-color="#6eb12b"/>
			<stop offset=".3" stop-color="#6db12b"/>
			<stop offset=".3" stop-color="#6cb02b"/>
			<stop offset=".3" stop-color="#6baf2b"/>
			<stop offset=".3" stop-color="#6bae2b"/>
			<stop offset=".3" stop-color="#6aad2b"/>
			<stop offset=".3" stop-color="#69ad2c"/>
			<stop offset=".3" stop-color="#68ac2c"/>
			<stop offset=".3" stop-color="#67ab2c"/>
			<stop offset=".3" stop-color="#67aa2c"/>
			<stop offset=".3" stop-color="#66aa2c"/>
			<stop offset=".4" stop-color="#65a92c"/>
			<stop offset=".4" stop-color="#64a82c"/>
			<stop offset=".4" stop-color="#63a72c"/>
			<stop offset=".4" stop-color="#63a62c"/>
			<stop offset=".4" stop-color="#62a52c"/>
			<stop offset=".4" stop-color="#61a52c"/>
			<stop offset=".4" stop-color="#60a42c"/>
			<stop offset=".4" stop-color="#5fa32d"/>
			<stop offset=".4" stop-color="#5fa22d"/>
			<stop offset=".4" stop-color="#5ea12d"/>
			<stop offset=".4" stop-color="#5da12d"/>
			<stop offset=".4" stop-color="#5ca02d"/>
			<stop offset=".4" stop-color="#5c9f2d"/>
			<stop offset=".5" stop-color="#5b9e2d"/>
			<stop offset=".5" stop-color="#5a9d2d"/>
			<stop offset=".5" stop-color="#599d2d"/>
			<stop offset=".5" stop-color="#589c2d"/>
			<stop offset=".5" stop-color="#579b2d"/>
			<stop offset=".5" stop-color="#579a2e"/>
			<stop offset=".5" stop-color="#569a2e"/>
			<stop offset=".5" stop-color="#55992e"/>
			<stop offset=".5" stop-color="#54982e"/>
			<stop offset=".5" stop-color="#54972e"/>
			<stop offset=".5" stop-color="#53962e"/>
			<stop offset=".5" stop-color="#52952e"/>
			<stop offset=".5" stop-color="#51952e"/>
			<stop offset=".6" stop-color="#50942e"/>
			<stop offset=".6" stop-color="#50932e"/>
			<stop offset=".6" stop-color="#4f922e"/>
			<stop offset=".6" stop-color="#4e912f"/>
			<stop offset=".6" stop-color="#4d912f"/>
			<stop offset=".6" stop-color="#4d902f"/>
			<stop offset=".6" stop-color="#4c8f2f"/>
			<stop offset=".6" stop-color="#4b8e2f"/>
			<stop offset=".6" stop-color="#4a8e2f"/>
			<stop offset=".6" stop-color="#498d2f"/>
			<stop offset=".6" stop-color="#488c2f"/>
			<stop offset=".6" stop-color="#488b2f"/>
			<stop offset=".6" stop-color="#478a2f"/>
			<stop offset=".7" stop-color="#46892f"/>
			<stop offset=".7" stop-color="#458930"/>
			<stop offset=".7" stop-color="#458830"/>
			<stop offset=".7" stop-color="#448730"/>
			<stop offset=".7" stop-color="#438630"/>
			<stop offset=".7" stop-color="#428530"/>
			<stop offset=".7" stop-color="#418530"/>
			<stop offset=".7" stop-color="#418430"/>
			<stop offset=".7" stop-color="#408330"/>
			<stop offset=".7" stop-color="#3f8230"/>
			<stop offset=".7" stop-color="#3e8130"/>
			<stop offset=".7" stop-color="#3d8130"/>
			<stop offset=".8" stop-color="#3d8031"/>
			<stop offset=".8" stop-color="#3c7f31"/>
			<stop offset=".8" stop-color="#3b7e31"/>
			<stop offset=".8" stop-color="#3a7d31"/>
			<stop offset=".8" stop-color="#397c31"/>
			<stop offset=".8" stop-color="#397c31"/>
			<stop offset=".8" stop-color="#387b31"/>
			<stop offset=".8" stop-color="#377a31"/>
			<stop offset=".8" stop-color="#367931"/>
			<stop offset=".8" stop-color="#367931"/>
			<stop offset=".8" stop-color="#357831"/>
			<stop offset=".8" stop-color="#347732"/>
			<stop offset=".8" stop-color="#337632"/>
			<stop offset=".9" stop-color="#327532"/>
			<stop offset=".9" stop-color="#317532"/>
			<stop offset=".9" stop-color="#317432"/>
			<stop offset=".9" stop-color="#307332"/>
			<stop offset=".9" stop-color="#2f7232"/>
			<stop offset=".9" stop-color="#2e7132"/>
			<stop offset=".9" stop-color="#2e7032"/>
			<stop offset=".9" stop-color="#2d7032"/>
			<stop offset=".9" stop-color="#2c6f32"/>
			<stop offset=".9" stop-color="#2b6e33"/>
			<stop offset=".9" stop-color="#2b6e33"/>
			<stop offset=".9" stop-color="#2a6d33"/>
			<stop offset=".9" stop-color="#2a6d33"/>
			<stop offset=".9" stop-color="#296c33"/>
			<stop offset="1" stop-color="#286b33"/>
			<stop offset="1" stop-color="#276a33"/>
			<stop offset="1" stop-color="#276933"/>
			<stop offset="1" stop-color="#266933"/>
			<stop offset="1" stop-color="#256833"/>
			<stop offset="1" stop-color="#246734"/>
			<stop offset="1" stop-color="#236634"/>
		</linearGradient>
		<clipPath clipPathUnits="userSpaceOnUse" id="cp9">
			<path d="m1118 443h140v136.75h-140z"/>
		</clipPath>
		<clipPath clipPathUnits="userSpaceOnUse" id="cp10">
			<path d="m1136.8 579.75q-1.37 0-2.73-0.21-1.36-0.21-2.68-0.61-1.31-0.4-2.55-1-1.25-0.59-2.38-1.36-1.15-0.77-2.16-1.7-1.01-0.93-1.88-2-0.87-1.07-1.56-2.25-0.71-1.19-1.22-2.46-0.52-1.28-0.85-2.62-0.32-1.33-0.44-2.71-0.13-1.37-0.05-2.74 0.08-1.38 0.36-2.72 0.28-1.35 0.76-2.64 0.47-1.3 1.13-2.5 0.66-1.21 1.49-2.31 0.83-1.09 1.82-2.06l101.71-99.22q0.66-0.64 1.37-1.21 0.71-0.57 1.47-1.07 0.77-0.49 1.58-0.91 0.81-0.42 1.65-0.76 0.85-0.34 1.72-0.59 0.88-0.26 1.77-0.42 0.9-0.17 1.81-0.25 0.9-0.07 1.82-0.06 0.91 0.01 1.81 0.11 0.91 0.1 1.8 0.29 0.89 0.19 1.76 0.47 0.87 0.27 1.71 0.63 0.83 0.36 1.63 0.8 0.79 0.44 1.55 0.96 0.75 0.51 1.44 1.1 0.7 0.59 1.34 1.24 0.64 0.66 1.2 1.37 0.57 0.71 1.07 1.48 0.49 0.76 0.91 1.57 0.42 0.81 0.76 1.66 0.34 0.85 0.59 1.72 0.25 0.88 0.42 1.77 0.17 0.9 0.25 1.81 0.07 0.91 0.06 1.82-0.01 0.91-0.11 1.82-0.1 0.91-0.29 1.8-0.19 0.89-0.46 1.76-0.28 0.87-0.64 1.7-0.36 0.84-0.8 1.64-0.44 0.8-0.96 1.55-0.51 0.75-1.1 1.45-0.58 0.7-1.24 1.34l-101.71 99.22q-2.6 2.55-5.96 3.92-3.36 1.38-6.99 1.38z"/>
		</clipPath>
		<linearGradient id="g5" x1="1141" y1="430.3" x2="1234.3" y2="592.8" gradientUnits="userSpaceOnUse">
			<stop offset="0" stop-color="#68ac2c"/>
			<stop offset="0" stop-color="#68ac2c"/>
			<stop offset="0" stop-color="#67ab2c"/>
			<stop offset="0" stop-color="#67aa2c"/>
			<stop offset="0" stop-color="#66aa2c"/>
			<stop offset="0" stop-color="#65a92c"/>
			<stop offset="0" stop-color="#65a92c"/>
			<stop offset=".1" stop-color="#64a82c"/>
			<stop offset=".1" stop-color="#63a72c"/>
			<stop offset=".1" stop-color="#63a72c"/>
			<stop offset=".1" stop-color="#62a62c"/>
			<stop offset=".1" stop-color="#62a52c"/>
			<stop offset=".1" stop-color="#61a42c"/>
			<stop offset=".1" stop-color="#60a42c"/>
			<stop offset=".1" stop-color="#60a32d"/>
			<stop offset=".1" stop-color="#5fa32d"/>
			<stop offset=".1" stop-color="#5ea22d"/>
			<stop offset=".1" stop-color="#5ea12d"/>
			<stop offset=".1" stop-color="#5da12d"/>
			<stop offset=".1" stop-color="#5da02d"/>
			<stop offset=".2" stop-color="#5c9f2d"/>
			<stop offset=".2" stop-color="#5b9f2d"/>
			<stop offset=".2" stop-color="#5b9e2d"/>
			<stop offset=".2" stop-color="#5a9d2d"/>
			<stop offset=".2" stop-color="#599d2d"/>
			<stop offset=".2" stop-color="#589c2d"/>
			<stop offset=".2" stop-color="#589c2d"/>
			<stop offset=".2" stop-color="#579b2e"/>
			<stop offset=".2" stop-color="#579a2e"/>
			<stop offset=".2" stop-color="#569a2e"/>
			<stop offset=".2" stop-color="#55992e"/>
			<stop offset=".2" stop-color="#55982e"/>
			<stop offset=".3" stop-color="#54972e"/>
			<stop offset=".3" stop-color="#53972e"/>
			<stop offset=".3" stop-color="#53962e"/>
			<stop offset=".3" stop-color="#52962e"/>
			<stop offset=".3" stop-color="#52952e"/>
			<stop offset=".3" stop-color="#51942e"/>
			<stop offset=".3" stop-color="#50942e"/>
			<stop offset=".3" stop-color="#50932e"/>
			<stop offset=".3" stop-color="#4f922e"/>
			<stop offset=".3" stop-color="#4e922f"/>
			<stop offset=".3" stop-color="#4e912f"/>
			<stop offset=".3" stop-color="#4d902f"/>
			<stop offset=".3" stop-color="#4d902f"/>
			<stop offset=".4" stop-color="#4c8f2f"/>
			<stop offset=".4" stop-color="#4b8f2f"/>
			<stop offset=".4" stop-color="#4a8e2f"/>
			<stop offset=".4" stop-color="#4a8d2f"/>
			<stop offset=".4" stop-color="#498d2f"/>
			<stop offset=".4" stop-color="#498d2f"/>
			<stop offset=".4" stop-color="#498c2f"/>
			<stop offset=".4" stop-color="#488b2f"/>
			<stop offset=".4" stop-color="#478a2f"/>
			<stop offset=".4" stop-color="#478a2f"/>
			<stop offset=".4" stop-color="#46892f"/>
			<stop offset=".4" stop-color="#458930"/>
			<stop offset=".4" stop-color="#458830"/>
			<stop offset=".4" stop-color="#448730"/>
			<stop offset=".5" stop-color="#438730"/>
			<stop offset=".5" stop-color="#438630"/>
			<stop offset=".5" stop-color="#428530"/>
			<stop offset=".5" stop-color="#428530"/>
			<stop offset=".5" stop-color="#418430"/>
			<stop offset=".5" stop-color="#408330"/>
			<stop offset=".5" stop-color="#3f8330"/>
			<stop offset=".5" stop-color="#3f8230"/>
			<stop offset=".5" stop-color="#3e8230"/>
			<stop offset=".5" stop-color="#3e8130"/>
			<stop offset=".5" stop-color="#3d8030"/>
			<stop offset=".5" stop-color="#3c8031"/>
			<stop offset=".5" stop-color="#3c7f31"/>
			<stop offset=".6" stop-color="#3b7e31"/>
			<stop offset=".6" stop-color="#3a7d31"/>
			<stop offset=".6" stop-color="#3a7d31"/>
			<stop offset=".6" stop-color="#397c31"/>
			<stop offset=".6" stop-color="#397c31"/>
			<stop offset=".6" stop-color="#387b31"/>
			<stop offset=".6" stop-color="#377a31"/>
			<stop offset=".6" stop-color="#377a31"/>
			<stop offset=".6" stop-color="#367931"/>
			<stop offset=".6" stop-color="#357831"/>
			<stop offset=".6" stop-color="#357831"/>
			<stop offset=".6" stop-color="#347731"/>
			<stop offset=".6" stop-color="#347732"/>
			<stop offset=".6" stop-color="#337632"/>
			<stop offset=".7" stop-color="#337632"/>
			<stop offset=".7" stop-color="#327532"/>
			<stop offset=".7" stop-color="#317532"/>
			<stop offset=".7" stop-color="#317432"/>
			<stop offset=".7" stop-color="#307332"/>
			<stop offset=".7" stop-color="#2f7232"/>
			<stop offset=".7" stop-color="#2f7232"/>
			<stop offset=".7" stop-color="#2e7132"/>
			<stop offset=".7" stop-color="#2e7032"/>
			<stop offset=".7" stop-color="#2d7032"/>
			<stop offset=".7" stop-color="#2c6f32"/>
			<stop offset=".7" stop-color="#2c6f32"/>
			<stop offset=".8" stop-color="#2b6e33"/>
			<stop offset=".8" stop-color="#2a6d33"/>
			<stop offset=".8" stop-color="#2a6d33"/>
			<stop offset=".8" stop-color="#296c33"/>
			<stop offset=".8" stop-color="#296b33"/>
			<stop offset=".8" stop-color="#286b33"/>
			<stop offset=".8" stop-color="#276a33"/>
			<stop offset=".8" stop-color="#276933"/>
			<stop offset=".8" stop-color="#266933"/>
			<stop offset=".8" stop-color="#256833"/>
			<stop offset=".8" stop-color="#256833"/>
			<stop offset=".8" stop-color="#246734"/>
			<stop offset=".8" stop-color="#236634"/>
			<stop offset=".9" stop-color="#236534"/>
			<stop offset=".9" stop-color="#226534"/>
			<stop offset=".9" stop-color="#216434"/>
			<stop offset=".9" stop-color="#216334"/>
			<stop offset=".9" stop-color="#206334"/>
			<stop offset=".9" stop-color="#1f6234"/>
			<stop offset=".9" stop-color="#1f6234"/>
			<stop offset=".9" stop-color="#1f6234"/>
			<stop offset="1" stop-color="#1f6234"/>
		</linearGradient>
		<clipPath clipPathUnits="userSpaceOnUse" id="cp11">
			<path d="m967 0h140v137h-140z"/>
		</clipPath>
		<clipPath clipPathUnits="userSpaceOnUse" id="cp12">
			<path d="m986.01 136.36q-1.38 0-2.74-0.2-1.36-0.2-2.68-0.6-1.31-0.4-2.55-0.99-1.25-0.59-2.39-1.36-1.14-0.76-2.15-1.69-1.02-0.93-1.89-2-0.87-1.07-1.57-2.25-0.7-1.18-1.22-2.46-0.52-1.28-0.84-2.61-0.33-1.34-0.45-2.71-0.12-1.38-0.04-2.75 0.08-1.37 0.36-2.72 0.28-1.35 0.76-2.64 0.48-1.29 1.14-2.5 0.66-1.21 1.5-2.3 0.83-1.09 1.82-2.06l101.71-99.27q0.65-0.64 1.36-1.21 0.72-0.58 1.48-1.08 0.77-0.5 1.58-0.92 0.81-0.42 1.66-0.76 0.84-0.35 1.72-0.6 0.88-0.26 1.77-0.43 0.9-0.17 1.81-0.25 0.91-0.08 1.82-0.07 0.92 0.01 1.82 0.11 0.91 0.1 1.81 0.28 0.89 0.19 1.76 0.47 0.87 0.27 1.72 0.63 0.83 0.36 1.64 0.8 0.8 0.44 1.55 0.95 0.76 0.52 1.46 1.1 0.69 0.59 1.34 1.25 0.64 0.65 1.21 1.36 0.57 0.71 1.07 1.48 0.5 0.77 0.92 1.57 0.43 0.82 0.77 1.66 0.34 0.85 0.59 1.73 0.26 0.88 0.43 1.78 0.17 0.9 0.25 1.81 0.08 0.91 0.07 1.82-0.01 0.92-0.11 1.82-0.1 0.91-0.28 1.81-0.19 0.9-0.46 1.77-0.28 0.87-0.64 1.71-0.36 0.84-0.79 1.64-0.44 0.81-0.96 1.56-0.51 0.76-1.1 1.46-0.59 0.7-1.24 1.34l-101.86 99.27q-2.6 2.54-5.96 3.9-3.36 1.36-6.98 1.35z"/>
		</clipPath>
		<linearGradient id="g6" x1="1072.8" y1="151" x2="1000.9" y2="-14.6" gradientUnits="userSpaceOnUse">
			<stop offset="0" stop-color="#5c9f2d"/>
			<stop offset="0" stop-color="#5b9f2d"/>
			<stop offset="0" stop-color="#5a9e2d"/>
			<stop offset="0" stop-color="#599d2d"/>
			<stop offset=".1" stop-color="#589c2d"/>
			<stop offset=".1" stop-color="#579b2d"/>
			<stop offset=".1" stop-color="#569a2e"/>
			<stop offset=".1" stop-color="#56992e"/>
			<stop offset=".1" stop-color="#55982e"/>
			<stop offset=".1" stop-color="#54972e"/>
			<stop offset=".2" stop-color="#53962e"/>
			<stop offset=".2" stop-color="#52952e"/>
			<stop offset=".2" stop-color="#51942e"/>
			<stop offset=".2" stop-color="#50932e"/>
			<stop offset=".2" stop-color="#4f922e"/>
			<stop offset=".2" stop-color="#4e922f"/>
			<stop offset=".3" stop-color="#4d912f"/>
			<stop offset=".3" stop-color="#4c902f"/>
			<stop offset=".3" stop-color="#4b8f2f"/>
			<stop offset=".3" stop-color="#4a8e2f"/>
			<stop offset=".3" stop-color="#498d2f"/>
			<stop offset=".3" stop-color="#498c2f"/>
			<stop offset=".3" stop-color="#488c2f"/>
			<stop offset=".3" stop-color="#478b2f"/>
			<stop offset=".4" stop-color="#478a2f"/>
			<stop offset=".4" stop-color="#468930"/>
			<stop offset=".4" stop-color="#458830"/>
			<stop offset=".4" stop-color="#448730"/>
			<stop offset=".4" stop-color="#438630"/>
			<stop offset=".4" stop-color="#428530"/>
			<stop offset=".5" stop-color="#418430"/>
			<stop offset=".5" stop-color="#408330"/>
			<stop offset=".5" stop-color="#3f8230"/>
			<stop offset=".5" stop-color="#3e8130"/>
			<stop offset=".5" stop-color="#3d8030"/>
			<stop offset=".5" stop-color="#3c8031"/>
			<stop offset=".5" stop-color="#3b7e31"/>
			<stop offset=".6" stop-color="#3a7d31"/>
			<stop offset=".6" stop-color="#397d31"/>
			<stop offset=".6" stop-color="#397c31"/>
			<stop offset=".6" stop-color="#387b31"/>
			<stop offset=".6" stop-color="#377a31"/>
			<stop offset=".6" stop-color="#367931"/>
			<stop offset=".7" stop-color="#357831"/>
			<stop offset=".7" stop-color="#347732"/>
			<stop offset=".7" stop-color="#337632"/>
			<stop offset=".7" stop-color="#327532"/>
			<stop offset=".7" stop-color="#317532"/>
			<stop offset=".7" stop-color="#317432"/>
			<stop offset=".7" stop-color="#307332"/>
			<stop offset=".8" stop-color="#2f7232"/>
			<stop offset=".8" stop-color="#2e7132"/>
			<stop offset=".8" stop-color="#2d7032"/>
			<stop offset=".8" stop-color="#2c6f32"/>
			<stop offset=".8" stop-color="#2b6e32"/>
			<stop offset=".8" stop-color="#2a6d33"/>
			<stop offset=".8" stop-color="#2a6c33"/>
			<stop offset=".9" stop-color="#296b33"/>
			<stop offset=".9" stop-color="#286b33"/>
			<stop offset=".9" stop-color="#276a33"/>
			<stop offset=".9" stop-color="#266933"/>
			<stop offset=".9" stop-color="#256833"/>
			<stop offset=".9" stop-color="#246734"/>
			<stop offset="1" stop-color="#236634"/>
			<stop offset="1" stop-color="#226534"/>
			<stop offset="1" stop-color="#216434"/>
			<stop offset="1" stop-color="#206334"/>
		</linearGradient>
		<clipPath clipPathUnits="userSpaceOnUse" id="cp13">
			<path d="m1557.52 183.36h108v100.21h-108z"/>
		</clipPath>
		<clipPath clipPathUnits="userSpaceOnUse" id="cp14">
			<path d="m757 161h64.29v115h-64.29z"/>
		</clipPath>
		<clipPath clipPathUnits="userSpaceOnUse" id="cp15">
			<path d="m701.65 146h47.35v86h-47.35z"/>
		</clipPath>
		<clipPath clipPathUnits="userSpaceOnUse" id="cp16">
			<path d="m757 125.25h36v63.75h-36z"/>
		</clipPath>
	</defs>
	<style>
		.s0 { fill: url(#g1) } 
		.s1 { fill: url(#g2) } 
		.s2 { fill: url(#g3) } 
		.s3 { fill: url(#g4) } 
		.s4 { fill: url(#g5) } 
		.s5 { fill: url(#g6) } 
		.s6 { fill: #013b23 } 
		.s7 { fill: #ffc107 } 
		.s8 { fill: #87cb28 } 
		.s9 { fill: #008037 } 
	</style>
	<g id="Clip-Path" clip-path="url(#cp1)">
		<g id="Layer">
			<g id="Clip-Path" clip-path="url(#cp2)">
				<g id="Layer">
					<path id="Layer" class="s0" d="m1051.2 388.4v169.8h-99.5v-169.8z"/>
				</g>
			</g>
		</g>
	</g>
	<g id="Clip-Path" clip-path="url(#cp3)">
		<g id="Layer">
			<g id="Clip-Path" clip-path="url(#cp4)">
				<g id="Layer">
					<path id="Layer" class="s1" d="m1273.7 16.3v170.1h-99.4v-170.1z"/>
				</g>
			</g>
		</g>
	</g>
	<g id="Clip-Path" clip-path="url(#cp5)">
		<g id="Layer">
			<g id="Clip-Path" clip-path="url(#cp6)">
				<g id="Layer">
					<path id="Layer" class="s2" d="m1242.1 0.1v492.3h-171v-492.3z"/>
				</g>
			</g>
		</g>
	</g>
	<g id="Clip-Path" clip-path="url(#cp7)">
		<g id="Layer">
			<g id="Clip-Path" clip-path="url(#cp8)">
				<g id="Layer">
					<path id="Layer" class="s3" d="m1172.4 72.3v507.4h-171.2v-507.4z"/>
				</g>
			</g>
		</g>
	</g>
	<g id="Clip-Path" clip-path="url(#cp9)">
		<g id="Layer">
			<g id="Clip-Path" clip-path="url(#cp10)">
				<g id="Layer">
					<path id="Layer" class="s4" d="m1257.1 443.4v136.4h-138.8v-136.4z"/>
				</g>
			</g>
		</g>
	</g>
	<g id="Clip-Path" clip-path="url(#cp11)">
		<g id="Layer">
			<g id="Clip-Path" clip-path="url(#cp12)">
				<g id="Layer">
					<path id="Layer" class="s5" d="m1106.4 0v136.4h-139v-136.4z"/>
				</g>
			</g>
		</g>
	</g>
	<g id="Layer">
		<g id="Layer">
			<g id="Layer">
				<path id="Layer" fill-rule="evenodd" class="s6" d="m195.2 396.4h-115l-30.3 74.2h-49.9l139.7-328.8h3l139.6 328.8h-58.1zm-16.9-43.4l-39.4-99.8-40.8 99.8z"/>
			</g>
		</g>
	</g>
	<g id="Layer">
		<g id="Layer">
			<g id="Layer">
				<path id="Layer" fill-rule="evenodd" class="s6" d="m524.8 287.1v184.3q0 25.6-13.7 46.2-13.7 20.6-38.2 32.5-24.5 12-55.2 12-30 0-49.9-9.3-20-9.4-40.4-27.2l28.7-33.3q13.8 13 28.1 20.1 14.4 7.2 32.6 7.2 26.9 0 42.9-13.3 16.1-13.2 16.5-35.7v-30.8q-9.5 16-28.4 25.8-18.9 9.7-44 9.7-25.2 0-46.4-12.7-21.3-12.8-33.9-35.2-12.5-22.3-12.5-49.6 0-27.8 13.2-50.6 13.2-22.7 35.1-35.5 21.9-12.8 46.6-12.8 23 0 41.9 8 18.9 8 28.4 21l3.9-20.8zm-106.7 148.3q21.3 0 36.7-10.4 15.4-10.4 21.4-28.2v-39.9q-6-17.3-21.6-27.7-15.7-10.4-36.5-10.4-24.7 0-41.4 16.2-16.7 16.3-16.7 41.5 0 16.4 7.8 29.9 7.8 13.4 21.1 21.2 13.2 7.8 29.2 7.8z"/>
			</g>
		</g>
	</g>
	<g id="Layer">
		<g id="Layer">
			<g id="Layer">
				<path id="Layer" class="s6" d="m638.8 329.6q7.4-14.7 20.8-26.4 13.5-11.7 27.6-18 14.1-6.3 23.6-6.3l-2.2 48.6q-19.9-1.8-35.5 7.1-15.6 8.9-24.3 24.3-8.7 15.4-8.7 32.7v79h-48.5v-183.5h43.8z"/>
			</g>
		</g>
	</g>
	<g id="Layer">
		<g id="Layer">
			<g id="Layer">
				<path id="Layer" class="s6" d="m809.3 287.1v183.5h-48.6v-183.5zm-50.8-65.5q0-10.8 8.7-18.4 8.7-7.6 19.5-7.6 10.4 0 18.9 7.6 8.5 7.6 8.5 18.4 0 10.9-8.5 18.3-8.5 7.3-18.9 7.3-10.8 0-19.5-7.3-8.7-7.4-8.7-18.3z"/>
			</g>
		</g>
	</g>
	<g id="Layer">
		<g id="Layer">
			<g id="Layer">
			</g>
		</g>
	</g>
	<g id="Layer">
		<g id="Layer">
			<g id="Layer">
			</g>
		</g>
	</g>
	<g id="Layer">
		<g id="Layer">
			<g id="Layer">
			</g>
		</g>
	</g>
	<g id="Layer">
		<g id="Layer">
			<g id="Layer">
				<path id="Layer" class="s7" d="m1352.2 212.1v79.4h49v32.1h-49v147h-40.8v-147h-32.9v-32.1h32.9v-79.4z"/>
			</g>
		</g>
	</g>
	<g id="Layer">
		<g id="Layer">
			<g id="Layer">
				<path id="Layer" fill-rule="evenodd" class="s7" d="m1634.6 291v179.6h-40.4v-29.5q-9.5 12.6-27.7 23.2-18.3 10.6-41.2 10.6-25.6 0-46.2-11-20.6-11.1-32.6-32.4-11.9-21.2-11.9-50.7 0-29.5 12.4-51.4 12.3-21.9 33.4-33.8 21-12 46.6-12 23 0 39.9 10 16.9 10 27.3 26l3.1-28.6zm-98.5 150.5q22.1 0 37.9-12.4 15.9-12.3 20.2-33.6v-35.5q-5.2-19.1-21.7-31-16.4-12-37.7-12-16 0-29.7 7.9-13.7 7.8-21.7 21.9-8 14.1-8 31.8 0 17.4 8.2 31.7 8.3 14.3 22.1 22.8 13.9 8.4 30.4 8.4z"/>
			</g>
		</g>
	</g>
	<g id="Layer">
		<g id="Layer">
			<g id="Layer">
				<path id="Layer" class="s7" d="m1850.5 453.7q-12.1 9.9-28.8 15.6-16.7 5.6-34.1 5.6-29 0-51.4-11.7-22.3-11.7-34.7-33.2-12.3-21.4-12.3-49.6 0-27.8 13-49.3 13-21.4 34.7-33.1 21.7-11.7 46.8-11.7 41.2 0 68.1 22.5l-20.4 26.5q-8.6-6.5-19.9-11.1-11.3-4.5-24.3-4.6-16 0.1-29.3 8.1-13.2 8-20.8 21.9-7.6 13.8-7.6 30.8 0 16.9 8 30.8 8.1 13.8 21.9 22.1 13.9 8.2 31.7 8.2 22.1 0 38.6-13z"/>
			</g>
		</g>
	</g>
	<g id="Layer">
		<g id="Layer">
			<g id="Layer">
				<path id="Layer" class="s7" d="m1966.3 384.3l-23.4 19.1v67.2h-40.3v-336.1h40.3v226.8l92.8-74.6 24.7 21.7-66.3 53.3 75 108.9h-47.3z"/>
			</g>
		</g>
	</g>
	<g id="Clip-Path" clip-path="url(#cp13)">
		<g id="Layer">
			<path id="Layer" class="s8" d="m1609.2 266.3l2.3 1.2 2.4-1.2 36.3-19 15.3 8-54 28.3-54-28.3 15.4-8zm0-21.9l2.3 1.3 2.4-1.3 36.3-18.9 15.3 8-54 28.2-54-28.2 15.4-8zm56.4-32.8l-54 28.2-54-28.2 54-28.3z"/>
		</g>
	</g>
	<g id="Clip-Path" clip-path="url(#cp14)">
		<g id="Layer">
			<path id="Layer" class="s6" d="m821.2 165.2q0 18.6 0 37.2 0 3.8-0.5 7.6c-1.8 14.6-8.7 26.5-20.5 35.3-13.5 10-27.2 19.7-40.8 29.6q-1 0.6-2 1.1v-2.3c0-13-0.1-26 0-39q0-3.7 0.5-7.3 1.2-10.3 6.5-19.2c4.3-7.5 10.5-13.3 17.4-18.3q17.2-12.4 34.4-24.9c1.4-1 2.9-2 5-3.5z"/>
		</g>
	</g>
	<g id="Clip-Path" clip-path="url(#cp15)">
		<g id="Layer">
			<path id="Layer" class="s9" d="m702.5 147.2c10.7 7.8 21.6 15.3 32 23.5 9.4 7.2 14.1 17.2 14.3 29.1 0.2 9.9 0 19.8 0 29.8q-0.1 1.1-0.3 2.1c-0.7-0.4-1-0.7-1.4-0.9-10.2-7.4-20.6-14.6-30.5-22.2-9.8-7.5-15.1-17.6-15.2-30.1 0-7 0-14 0-21v-10.7q0.6 0.1 1.1 0.4z"/>
		</g>
	</g>
	<g id="Clip-Path" clip-path="url(#cp16)">
		<g id="Layer">
			<path id="Layer" class="s8" d="m757.3 186.5q0-11.6 0.1-23.2 0-1.2 0.3-2.4c1.2-8.1 5.3-14.4 11.8-19.3 7-5.2 14.1-10.3 21.2-15.4q1-0.6 2-0.9c0 1.2 0 2.1 0 3v19.4c0 10-4.1 18.1-12.2 24-5.1 3.8-10.2 7.4-15.3 11.1l-7.7 5.6c-0.1-1-0.2-1.5-0.2-1.9z"/>
		</g>
	</g>
</svg>